<svg xmlns="http://www.w3.org/2000/svg" xmlns:xlink="http://www.w3.org/1999/xlink" version="1.1" enable-background="new 0 0 1110.4 950.7" xml:space="preserve" width="558" height="787" style=""><rect id="backgroundrect" width="100%" height="100%" x="0" y="0" fill="none" stroke="none"/>

<g class="currentLayer" style=""><title>Layer 1</title>
	<path fill="#FFFFFF" d="M273.93499755859375,192.51260602474213 c-51.099998474121094,0 -92.5999984741211,41.400001525878906 -92.5999984741211,92.5 s41.400001525878906,92.5999984741211 92.5,92.5999984741211 c51.099998474121094,0 92.5999984741211,-41.400001525878906 92.5999984741211,-92.5 l0,0 C366.43499755859375,233.91261518001556 325.0350341796875,192.51260602474213 273.93499755859375,192.51260602474213 " id="svg_2" class="" transform=""/>
	<path fill="#963582" d="M78.33502197265625,121.71261823177338 c-0.800000011920929,1.600000023841858 -0.20000000298023224,3.5 1.2999999523162842,4.300000190734863 l0,0 l98.0999984741211,57 l0.20000000298023224,0.10000000149011612 c1.100000023841858,0.6000000238418579 2.4000000953674316,0.5 3.299999952316284,-0.20000000298023224 c0.30000001192092896,-0.20000000298023224 0.6000000238418579,-0.5 0.800000011920929,-0.800000011920929 c0.10000000149011612,-0.10000000149011612 0.20000000298023224,-0.30000001192092896 0.30000001192092896,-0.5 c18.899999618530273,-33.5 51.79999923706055,-56.70000076293945 89.69999694824219,-63.400001525878906 c0.10000000149011612,0 0.30000001192092896,0 0.4000000059604645,-0.10000000149011612 c0.4000000059604645,-0.10000000149011612 0.800000011920929,-0.30000001192092896 1.100000023841858,-0.5 c1,-0.699999988079071 1.5,-1.9000000953674316 1.2999999523162842,-3.0999999046325684 v-0.20000000298023224 L254.0350341796875,2.812618136405945 V2.612618088722229 c-0.10000000149011612,-0.5 -0.30000001192092896,-0.9000000953674316 -0.6000000238418579,-1.2999999523162842 c-0.699999988079071,-0.9000000953674316 -1.7999999523162842,-1.399999976158142 -3,-1.2999999523162842 L250.135009765625,0.112618088722229 l0,0 C177.83502197265625,13.312617659568787 114.83502197265625,57.71261823177338 78.33502197265625,121.71261823177338 " id="svg_3" class="" transform=""/>
	<path fill="#004AD1" d="M22.33502197265625,337.1126273870468 c0.5,1.100000023841858 1.5,1.7999999523162842 2.5999999046325684,1.9000000953674316 c0.5,0 1.100000023841858,0 1.5,-0.30000001192092896 l105.80000305175781,-40.79999923706055 l0.20000000298023224,-0.10000000149011612 c1.100000023841858,-0.5 1.9000000953674316,-1.5 1.9000000953674316,-2.700000047683716 c0,-0.4000000059604645 0,-0.800000011920929 -0.10000000149011612,-1.100000023841858 c0,-0.20000000298023224 -0.10000000149011612,-0.30000001192092896 -0.20000000298023224,-0.5 c-14.300000190734863,-35.70000076293945 -11.800000190734863,-75.9000015258789 6.699999809265137,-109.5999984741211 c0.10000000149011612,-0.10000000149011612 0.10000000149011612,-0.20000000298023224 0.20000000298023224,-0.30000001192092896 c0.20000000298023224,-0.4000000059604645 0.30000001192092896,-0.800000011920929 0.30000001192092896,-1.2000000476837158 c0.10000000149011612,-1.2000000476837158 -0.5,-2.4000000953674316 -1.600000023841858,-3 l-0.20000000298023224,-0.10000000149011612 l-99.9000015258789,-53.599998474121094 l-0.20000000298023224,-0.10000000149011612 c-0.4000000059604645,-0.20000000298023224 -0.9000000953674316,-0.30000001192092896 -1.2999999523162842,-0.30000001192092896 c-1.100000023841858,0 -2.200000047683716,0.5 -2.799999952316284,1.5 c0,0.10000000149011612 -0.10000000149011612,0.20000000298023224 -0.10000000149011612,0.20000000298023224 l0,0 C0.0350341796875,191.61261212825775 -4.66497802734375,268.6126273870468 22.33502197265625,337.1126273870468 " id="svg_4" class="" transform=""/>
	<path fill="#0091FF" d="M156.83502197265625,514.1126273870468 c1.100000023841858,0.30000001192092896 2.299999952316284,-0.10000000149011612 3.0999999046325684,-0.9000000953674316 c0.4000000059604645,-0.4000000059604645 0.6000000238418579,-0.9000000953674316 0.800000011920929,-1.399999976158142 l33.70000076293945,-108.30000305175781 l0.10000000149011612,-0.20000000298023224 c0.30000001192092896,-1.2000000476837158 0,-2.4000000953674316 -0.9000000953674316,-3.200000047683716 c-0.30000001192092896,-0.30000001192092896 -0.6000000238418579,-0.5 -1,-0.6000000238418579 c-0.20000000298023224,-0.10000000149011612 -0.30000001192092896,-0.10000000149011612 -0.5,-0.20000000298023224 c-36.79999923706055,-11 -66.80000305175781,-37.900001525878906 -81.69999694824219,-73.30000305175781 c0,-0.10000000149011612 -0.10000000149011612,-0.20000000298023224 -0.10000000149011612,-0.4000000059604645 c-0.20000000298023224,-0.4000000059604645 -0.4000000059604645,-0.699999988079071 -0.699999988079071,-1 c-0.9000000953674316,-0.800000011920929 -2.200000047683716,-1 -3.299999952316284,-0.6000000238418579 l-0.20000000298023224,0.10000000149011612 l-104.0999984741211,45 l-0.20000000298023224,0.10000000149011612 c-0.4000000059604645,0.20000000298023224 -0.800000011920929,0.5 -1.100000023841858,0.800000011920929 c-0.699999988079071,0.9000000953674316 -0.9000000953674316,2.0999999046325684 -0.6000000238418579,3.0999999046325684 c0,0.10000000149011612 0.10000000149011612,0.20000000298023224 0.10000000149011612,0.20000000298023224 l0,0 C29.0350341796875,441.21263349056244 86.33502197265625,492.71263349056244 156.83502197265625,514.1126273870468 " id="svg_5" class="" transform=""/>
	<path fill="#00AB00" d="M377.93499755859375,519.3126395940781 c0.9000000953674316,-0.699999988079071 1.399999976158142,-1.7999999523162842 1.2999999523162842,-3 c-0.10000000149011612,-0.5 -0.30000001192092896,-1 -0.6000000238418579,-1.5 l-63.20000076293945,-94.19999694824219 l-0.20000000298023224,-0.20000000298023224 c-0.699999988079071,-1 -1.9000000953674316,-1.5 -3.0999999046325684,-1.2999999523162842 c-0.4000000059604645,0.10000000149011612 -0.699999988079071,0.20000000298023224 -1.100000023841858,0.4000000059604645 c-0.20000000298023224,0.10000000149011612 -0.30000001192092896,0.20000000298023224 -0.4000000059604645,0.30000001192092896 c-31.700000762939453,21.799999237060547 -71.4000015258789,28.299999237060547 -108.4000015258789,17.700000762939453 c-0.10000000149011612,-0.10000000149011612 -0.20000000298023224,-0.10000000149011612 -0.4000000059604645,-0.10000000149011612 c-0.4000000059604645,-0.10000000149011612 -0.800000011920929,-0.10000000149011612 -1.2000000476837158,0 c-1.2000000476837158,0.20000000298023224 -2.200000047683716,1.100000023841858 -2.5,2.200000047683716 l-0.10000000149011612,0.20000000298023224 L167.83502197265625,549.1126273870468 v0.20000000298023224 c-0.4000000059604645,1.600000023841858 0.4000000059604645,3.200000047683716 2,3.799999952316284 l0.30000001192092896,0.10000000149011612 l0,0 C241.0350341796875,573.2126029729843 317.135009765625,560.8126395940781 377.93499755859375,519.3126395940781 " id="svg_6" class="" transform=""/>
	<path fill="#FFE61E" d="M521.9349975585938,350.41261518001556 c0,-1.7999999523162842 -1.2999999523162842,-3.200000047683716 -3.0999999046325684,-3.299999952316284 l-113,-8.800000190734863 h-0.20000000298023224 c-1.2000000476837158,-0.10000000149011612 -2.299999952316284,0.6000000238418579 -2.9000000953674316,1.600000023841858 c-0.20000000298023224,0.30000001192092896 -0.30000001192092896,0.699999988079071 -0.30000001192092896,1.100000023841858 c0,0.20000000298023224 0,0.4000000059604645 0,0.5 c-2.5,38.400001525878906 -22.100000381469727,73.5999984741211 -53.29999923706055,96 c-0.10000000149011612,0.10000000149011612 -0.20000000298023224,0.10000000149011612 -0.30000001192092896,0.20000000298023224 c-0.30000001192092896,0.30000001192092896 -0.6000000238418579,0.6000000238418579 -0.800000011920929,0.9000000953674316 c-0.6000000238418579,1.100000023841858 -0.5,2.4000000953674316 0.20000000298023224,3.4000000953674316 l0.10000000149011612,0.20000000298023224 l67,91.5 l0.10000000149011612,0.20000000298023224 c0.30000001192092896,0.4000000059604645 0.6000000238418579,0.699999988079071 1.100000023841858,0.9000000953674316 c1,0.5 2.200000047683716,0.5 3.200000047683716,-0.10000000149011612 l0.20000000298023224,-0.20000000298023224 l0,0 C479.43499755859375,491.31263959407806 516.8350219726562,423.91261518001556 521.9349975585938,350.41261518001556 " id="svg_7" class="" transform=""/>
	<path fill="#FF7D00" d="M479.23504638671875,132.21261823177338 c-0.9000000953674316,-0.800000011920929 -2.0999999046325684,-1 -3.200000047683716,-0.6000000238418579 c-0.5,0.20000000298023224 -0.9000000953674316,0.5 -1.2999999523162842,0.9000000953674316 l-78,82.30000305175781 l-0.20000000298023224,0.20000000298023224 c-0.800000011920929,0.9000000953674316 -1,2.200000047683716 -0.6000000238418579,3.299999952316284 c0.10000000149011612,0.4000000059604645 0.30000001192092896,0.699999988079071 0.6000000238418579,1 c0.10000000149011612,0.10000000149011612 0.30000001192092896,0.30000001192092896 0.4000000059604645,0.4000000059604645 c28.200000762939453,26.100000381469727 43.29999923706055,63.5 41,101.9000015258789 c0,0.10000000149011612 0,0.30000001192092896 0,0.4000000059604645 c0,0.4000000059604645 0.10000000149011612,0.800000011920929 0.20000000298023224,1.2000000476837158 c0.5,1.100000023841858 1.5,1.9000000953674316 2.700000047683716,2 h0.20000000298023224 l113.30000305175781,5.5 h0.20000000298023224 c0.5,0 0.9000000953674316,-0.10000000149011612 1.399999976158142,-0.30000001192092896 c1,-0.4000000059604645 1.7999999523162842,-1.399999976158142 1.9000000953674316,-2.5 c0,-0.10000000149011612 0,-0.20000000298023224 0,-0.30000001192092896 l0,0 C561.8350219726562,254.11261212825775 533.0350341796875,182.61261212825775 479.23504638671875,132.21261823177338 " id="svg_8" class="" transform=""/>
	<path fill="#FF0000" d="M280.93499755859375,30.812618613243103 c-1.7000000476837158,0.30000001192092896 -2.799999952316284,2 -2.5,3.700000047683716 l0,0 l16.600000381469727,112.19999694824219 v0.20000000298023224 c0.30000001192092896,1.600000023841858 1.7000000476837158,2.700000047683716 3.4000000953674316,2.5999999046325684 c0.20000000298023224,0 0.4000000059604645,0 0.5,-0.10000000149011612 c38,-6.099999904632568 76.69999694824219,5.099999904632568 105.5,30.600000381469727 c0.10000000149011612,0.10000000149011612 0.20000000298023224,0.20000000298023224 0.30000001192092896,0.30000001192092896 c0.30000001192092896,0.20000000298023224 0.699999988079071,0.4000000059604645 1.100000023841858,0.6000000238418579 c1.2000000476837158,0.30000001192092896 2.4000000953674316,0 3.200000047683716,-0.9000000953674316 l0.20000000298023224,-0.20000000298023224 L483.43499755859375,94.11261975765228 l0.10000000149011612,-0.20000000298023224 c0.30000001192092896,-0.4000000059604645 0.5,-0.800000011920929 0.6000000238418579,-1.2000000476837158 c0.30000001192092896,-1.100000023841858 0,-2.299999952316284 -0.800000011920929,-3.0999999046325684 l-0.20000000298023224,-0.20000000298023224 l0,0 C427.73504638671875,41.01262128353119 353.73504638671875,19.512617468833923 280.93499755859375,30.812618613243103 " id="svg_9" class="" transform=""/>
	<path d="M273.93499755859375,191.21261823177338 c-51.79999923706055,0 -93.80000305175781,42 -93.80000305175781,93.9000015258789 c0,51.79999923706055 42,93.80000305175781 93.9000015258789,93.80000305175781 c51.79999923706055,0 93.80000305175781,-42 93.80000305175781,-93.80000305175781 C367.73504638671875,233.21261823177338 325.83502197265625,191.31260907649994 273.93499755859375,191.21261823177338 M342.135009765625,337.91261518001556 c1.399999976158142,-3.799999952316284 1.9000000953674316,-8.300000190734863 2.299999952316284,-11.699999809265137 c-1.9000000953674316,1.7999999523162842 -4,3.5 -6.099999904632568,5.099999904632568 c-6,4.400000095367432 -12.800000190734863,7.5 -20.100000381469727,9.199999809265137 l-18.100000381469727,-19.799999237060547 l-0.20000000298023224,0.20000000298023224 l13.199999809265137,23.200000762939453 c-3.799999952316284,6.5 -8.899999618530273,12.199999809265137 -15.100000381469727,16.5 c-2.0999999046325684,1.600000023841858 -4.400000095367432,3 -6.699999809265137,4.199999809265137 c3.4000000953674316,0.6000000238418579 7.699999809265137,1.600000023841858 11.800000190734863,1.399999976158142 c-18.799999237060547,6.699999809265137 -39.29999923706055,6.699999809265137 -58.099998474121094,0 c4.099999904632568,0.20000000298023224 8.399999618530273,-0.800000011920929 11.800000190734863,-1.399999976158142 c-2.299999952316284,-1.2000000476837158 -4.599999904632568,-2.700000047683716 -6.699999809265137,-4.199999809265137 c-6.099999904632568,-4.400000095367432 -11.300000190734863,-10 -15.100000381469727,-16.5 l13.199999809265137,-23.299999237060547 l-0.20000000298023224,-0.20000000298023224 L229.83502197265625,340.41261518001556 c-7.300000190734863,-1.600000023841858 -14.100000381469727,-4.699999809265137 -20.100000381469727,-9.100000381469727 c-2.0999999046325684,-1.600000023841858 -4.199999809265137,-3.299999952316284 -6.099999904632568,-5.099999904632568 c0.5,3.5 0.9000000953674316,7.900000095367432 2.4000000953674316,11.800000190734863 C194.23501586914062,322.91261518001556 187.83502197265625,304.21263349056244 187.83502197265625,285.1126273870468 c0,-1 0,-1.9000000953674316 0.10000000149011612,-2.799999952316284 c1,4 3.4000000953674316,8.100000381469727 5.099999904632568,11.199999809265137 c0.5,-2.5999999046325684 1.100000023841858,-5.199999809265137 1.9000000953674316,-7.699999809265137 c2.299999952316284,-7.199999809265137 6.099999904632568,-13.899999618530273 11.100000381469727,-19.5 l26,5.300000190734863 l0.10000000149011612,-0.30000001192092896 l-24.299999237060547,-11 c-0.699999988079071,-7.400000095367432 0.20000000298023224,-14.899999618530273 2.5,-21.899999618530273 c0.800000011920929,-2.5 1.7999999523162842,-5 3,-7.400000095367432 c-3.299999952316284,1.600000023841858 -7.800000190734863,3.5 -11,6.300000190734863 c11.5,-17.100000381469727 28.600000381469727,-29.600000381469727 48.5,-35.20000076293945 c-3.799999952316284,2.200000047683716 -7,5.900000095367432 -9.600000381469727,8.600000381469727 c2.5999999046325684,-0.4000000059604645 5.300000190734863,-0.5 7.900000095367432,-0.5 c7.5,-0.10000000149011612 15,1.5 21.799999237060547,4.5 l3,26.200000762939453 h0.30000001192092896 l3,-26.299999237060547 c6.900000095367432,-3 14.300000190734863,-4.5 21.799999237060547,-4.5 c2.700000047683716,0 5.300000190734863,0.20000000298023224 7.900000095367432,0.5 c-2.5999999046325684,-2.700000047683716 -5.800000190734863,-6.400000095367432 -9.600000381469727,-8.600000381469727 c19.799999237060547,5.599999904632568 37,18 48.400001525878906,35.099998474121094 c-3.200000047683716,-2.799999952316284 -7.599999904632568,-4.699999809265137 -10.899999618530273,-6.300000190734863 c1.2000000476837158,2.4000000953674316 2.200000047683716,4.800000190734863 3,7.400000095367432 c2.299999952316284,7.099999904632568 3.200000047683716,14.5 2.5,21.899999618530273 l-24.200000762939453,11.100000381469727 l0.10000000149011612,0.30000001192092896 l26,-5.300000190734863 c5.099999904632568,5.599999904632568 8.800000190734863,12.300000190734863 11.100000381469727,19.5 c0.800000011920929,2.5 1.5,5.099999904632568 1.9000000953674316,7.699999809265137 c1.7000000476837158,-3.0999999046325684 4,-7.099999904632568 5.099999904632568,-11.100000381469727 c0,0.9000000953674316 0.10000000149011612,1.7999999523162842 0.10000000149011612,2.700000047683716 C360.33502197265625,304.21263349056244 353.93499755859375,322.81263959407806 342.135009765625,337.91261518001556 " id="svg_10" class="" transform=""/>
	<polygon points="236.0350341796875,272.71263349056244 250.5350341796875,317.21263349056244 297.43499755859375,317.21263349056244 311.93499755859375,272.71263349056244 274.0350341796875,245.11261212825775 " id="svg_11" class="" transform=""/>
	<polygon points="1.735015869140625,625.4126151800156 1.735015869140625,751.3126395940781 73.93502807617188,751.3126395940781 73.93502807617188,722.7126029729843 34.33502197265625,722.7126029729843 34.33502197265625,625.4126151800156 " id="svg_12" class="" transform=""/>
	<path d="M134.135009765625,676.7126029729843 c-14.5,0 -23.899999618530273,10.800000190734863 -23.899999618530273,24.200000762939453 c0,14 8.800000190734863,25.5 22.899999618530273,25.5 c13.600000381469727,0 24.899999618530273,-10 24.899999618530273,-24.700000762939453 S147.5350341796875,676.7126029729843 134.135009765625,676.7126029729843 M79.33502197265625,701.3126395940781 c0,-28.100000381469727 20.799999237060547,-52.900001525878906 48.70000076293945,-52.900001525878906 c12.199999809265137,0 19.899999618530273,4.099999904632568 28.899999618530273,12.300000190734863 v-10.300000190734863 h30.100000381469727 v100.9000015258789 h-30.600000381469727 v-9.899999618530273 c-8,7.900000095367432 -18.799999237060547,12.399999618530273 -30.100000381469727,12.300000190734863 C98.43502807617188,753.8126395940781 79.33502197265625,733.7126029729843 79.33502197265625,701.3126395940781 " id="svg_13" class="" transform=""/>
	<polygon points="277.33502197265625,751.3126395940781 205.0350341796875,751.3126395940781 205.0350341796875,625.4126151800156 237.73504638671875,625.4126151800156 237.73504638671875,722.7126029729843 277.33502197265625,722.7126029729843 " id="svg_14" class="" transform=""/>
	<path d="M321.33502197265625,751.3126395940781 H290.83502197265625 V650.4126151800156 h30.399999618530273 L321.33502197265625,751.3126395940781 L321.33502197265625,751.3126395940781 zM287.93499755859375,624.8126395940781 c-0.10000000149011612,-10.199999809265137 8.100000381469727,-18.5 18.200000762939453,-18.600000381469727 c10.199999809265137,-0.10000000149011612 18.5,8.100000381469727 18.600000381469727,18.200000762939453 c0,10.300000190734863 -8.399999618530273,18.700000762939453 -18.700000762939453,18.700000762939453 h-0.10000000149011612 c-9.899999618530273,0 -18,-8.100000381469727 -18,-18 C287.93499755859375,625.0126518011093 287.93499755859375,624.9126151800156 287.93499755859375,624.8126395940781 " id="svg_15" class="" transform=""/>
	<path d="M385.23504638671875,674.5126518011093 c-14.199999809265137,0 -21.299999237060547,11.699999809265137 -21.299999237060547,24.200000762939453 c0,13 7.699999809265137,23.700000762939453 21.100000381469727,23.700000762939453 c15.199999809265137,0 23.399999618530273,-12.199999809265137 23.399999618530273,-23.5 C408.43499755859375,685.4126151800156 400.93499755859375,674.5126518011093 385.23504638671875,674.5126518011093 M334.33502197265625,698.9126151800156 c0,-27.299999237060547 17.299999237060547,-50.5 43.79999923706055,-50.5 c12.800000190734863,0 21.399999618530273,4.099999904632568 30.100000381469727,13.300000190734863 v-11.300000190734863 h29.100000381469727 v88.9000015258789 c0,31.200000762939453 -23.399999618530273,47.5 -51.5,47.5 c-24.700000762939453,0 -46.29999923706055,-12.5 -49.5,-35.20000076293945 h34.20000076293945 c4.199999809265137,6.900000095367432 8.5,8.199999809265137 16,8.199999809265137 c10.600000381469727,0 20.399999618530273,-4.900000095367432 20.399999618530273,-15.899999618530273 c0.10000000149011612,-2.5 0.10000000149011612,-5 -0.20000000298023224,-7.599999904632568 c-5.900000095367432,5.300000190734863 -16.799999237060547,11.699999809265137 -28.799999237060547,11.699999809265137 C352.0350341796875,748.0126518011093 334.33502197265625,726.3126395940781 334.33502197265625,698.9126151800156 " id="svg_16" class="" transform=""/>
	<path d="M505.23504638671875,676.7126029729843 c-14.5,0 -23.899999618530273,10.800000190734863 -23.899999618530273,24.200000762939453 c0,14 8.800000190734863,25.5 22.899999618530273,25.5 c13.600000381469727,0 24.799999237060547,-10 24.799999237060547,-24.700000762939453 S518.635009765625,676.7126029729843 505.23504638671875,676.7126029729843 M450.43499755859375,701.3126395940781 c0,-28.100000381469727 20.799999237060547,-52.900001525878906 48.70000076293945,-52.900001525878906 c12.300000190734863,0 20,4.099999904632568 28.899999618530273,12.300000190734863 v-10.300000190734863 h30.100000381469727 v100.9000015258789 h-30.600000381469727 v-9.899999618530273 c-8,7.900000095367432 -18.799999237060547,12.399999618530273 -30.100000381469727,12.300000190734863 C469.5350341796875,753.8126395940781 450.43499755859375,733.7126029729843 450.43499755859375,701.3126395940781 " id="svg_17" class="" transform=""/>
	
</g></svg>